<svg width="501" height="426" viewBox="0 0 501 426" fill="none" xmlns="http://www.w3.org/2000/svg">
<path d="M380.583 189.73C550.167 22.303 327.424 106.312 327.424 106.312L49.5658 278.998L101.901 363.207L380.583 189.73Z" fill="#FFA200"/>
<path d="M274.938 288.239C384.158 185.9 245.336 241.943 245.336 241.943L69.8488 351.007L98.9214 397.786L274.938 288.239Z" fill="#D1BBB8"/>
<path d="M223.903 206.12C331.65 101.412 191.536 155.376 191.536 155.376L16.0483 264.44L47.8927 315.679L223.903 206.12Z" fill="#D1BBB8"/>
<path d="M285.358 223.74C285.458 226.15 229.719 355.465 229.719 355.465L201.335 373.105L157.782 303.027L285.358 223.74Z" fill="#DEDEDE"/>
<path d="M257.286 178.572C255.14 177.367 113.327 168.186 113.327 168.186L84.9428 185.827L129.71 257.859L257.286 178.572Z" fill="#DEDEDE"/>
<path d="M322.578 200.397C441.714 92.0816 293.085 154.384 293.085 154.384L103.757 272.05L132.603 318.465L322.578 200.397Z" fill="white"/>
</svg>
